Coordinates
version=1
nRows=9
nColumns=63
inDegrees=yes

Units are S.I. units (second, meters, Newtons, ...)
If the header above contains a line with 'inDegrees', this indicates whether rotational values are in degrees (yes) or radians (no).

endheader
time	pelvis_tilt	pelvis_list	pelvis_rotation	pelvis_tx	pelvis_ty	pelvis_tz	hip_flexion_r	hip_adduction_r	hip_rotation_r	knee_angle_r	knee_angle_r_beta	ankle_angle_r	subtalar_angle_r	mtp_angle_r	hip_flexion_l	hip_adduction_l	hip_rotation_l	knee_angle_l	knee_angle_l_beta	ankle_angle_l	subtalar_angle_l	mtp_angle_l	L5_S1_Flex_Ext	L5_S1_Lat_Bending	L5_S1_axial_rotation	L4_L5_Flex_Ext	L4_L5_Lat_Bending	L4_L5_axial_rotation	L3_L4_Flex_Ext	L3_L4_Lat_Bending	L3_L4_axial_rotation	L2_L3_Flex_Ext	L2_L3_Lat_Bending	L2_L3_axial_rotation	L1_L2_Flex_Ext	L1_L2_Lat_Bending	L1_L2_axial_rotation	L1_T12_Flex_Ext	L1_T12_Lat_Bending	L1_T12_axial_rotation	Abs_r3	Abs_r2	Abs_r1	Abs_t1	Abs_t2	neck_flexion	neck_bending	neck_rotation	arm_flex_r	arm_add_r	arm_rot_r	elbow_flex_r	pro_sup_r	wrist_flex_r	wrist_dev_r	arm_flex_l	arm_add_l	arm_rot_l	elbow_flex_l	pro_sup_l	wrist_flex_l	wrist_dev_l
0.000000	-5.300898	-1.666275	79.165362	0.230575	0.874441	0.488141	1.780648	-4.091446	16.711628	10.278666	0.179397	39.301995	-3.482214	0.000000	-1.293900	5.346232	11.395748	2.978333	0.051982	36.552266	-17.811795	0.000000	0.272206	-0.570569	1.387052	0.505514	-0.758856	1.473743	0.447207	-1.387280	1.473743	0.311104	-1.387280	1.213671	0.252771	-1.163503	1.126980	0.155539	-0.883811	1.040289	1.944340	-6.454385	7.714369	0.000000	0.000000	21.072676	-0.179176	-8.132116	24.969479	-3.656204	95.081972	37.811234	88.254508	2.119216	-4.874972	18.924261	-12.957067	72.276515	47.281937	75.052417	1.820766	11.357290
0.016667	-4.976932	-1.461098	79.708894	0.230366	0.874954	0.485157	0.599570	-3.801158	18.016141	9.307185	0.162441	38.054606	-6.104899	0.000000	-1.935420	4.937634	12.072588	2.602048	0.045414	36.658493	-17.793429	0.000000	0.268476	-0.537813	1.274112	0.498586	-0.715291	1.353744	0.441079	-1.307638	1.353744	0.306841	-1.307638	1.114848	0.249307	-1.096708	1.035216	0.153407	-0.833072	0.955584	1.917695	-6.083846	7.086229	0.000000	0.000000	20.998056	-0.030412	-7.719526	23.684214	-3.792657	91.201485	37.888830	88.418984	4.990023	-2.544117	18.211555	-12.902595	70.672200	47.291659	75.690675	4.707803	12.729588
0.033333	-4.692612	-1.282352	80.170447	0.230180	0.875409	0.482662	-0.361398	-3.540321	19.012019	8.547526	0.149182	37.100632	-8.151642	0.000000	-2.477197	4.583751	12.665151	2.295671	0.040067	36.772798	-17.780271	0.000000	0.264926	-0.510017	1.194637	0.491994	-0.678322	1.269301	0.435247	-1.240055	1.269301	0.302784	-1.240055	1.045307	0.246010	-1.040026	0.970642	0.151379	-0.790016	0.895977	1.892341	-5.769413	6.644210	0.000000	0.000000	20.899290	0.059532	-7.526470	22.531608	-3.929438	87.756627	37.923251	88.277899	7.463971	-0.384113	17.688512	-12.804323	69.397196	47.221571	76.160908	7.215656	13.878198
0.050000	-4.445103	-1.128529	80.558195	0.230013	0.875809	0.480611	-1.121010	-3.306991	19.726517	7.981255	0.139299	36.413001	-9.676237	0.000000	-2.927141	4.280511	13.179358	2.053350	0.035838	36.892780	-17.771800	0.000000	0.261650	-0.486772	1.144960	0.485911	-0.647407	1.216521	0.429865	-1.183537	1.216521	0.299040	-1.183537	1.001840	0.242968	-0.992625	0.930280	0.149507	-0.754010	0.858720	1.868941	-5.506460	6.367927	0.000000	0.000000	20.779951	0.094044	-7.533313	21.502251	-4.066358	84.726331	37.923094	87.812416	9.552658	1.612272	17.335515	-12.668950	68.425800	47.083344	76.487172	9.364804	14.817501
0.066667	-4.231574	-0.998122	80.880313	0.229861	0.876157	0.478959	-1.698022	-3.099229	20.186888	7.589938	0.132469	35.964638	-10.732479	0.000000	-3.293162	4.023840	13.621134	1.869232	0.032624	37.016036	-17.767494	0.000000	0.258740	-0.467669	1.121419	0.480507	-0.621999	1.191507	0.425084	-1.137090	1.191507	0.295714	-1.137090	0.981241	0.240266	-0.953670	0.911153	0.147844	-0.724419	0.841064	1.848156	-5.290362	6.236994	0.000000	0.000000	20.643613	0.076513	-7.720422	20.586732	-4.203223	82.089526	37.896952	87.003699	11.267686	3.452273	17.132949	-12.503177	67.732310	46.888646	76.693525	11.175725	15.561876
0.083333	-4.049191	-0.889623	81.144976	0.229719	0.876457	0.477661	-2.111188	-2.915094	20.420386	7.355144	0.128371	35.728470	-11.374161	0.000000	-3.583169	3.809668	13.996402	1.737467	0.030325	37.140162	-17.766828	0.000000	0.256289	-0.452299	1.120346	0.475955	-0.601557	1.190367	0.421058	-1.099719	1.190367	0.292913	-1.099719	0.980302	0.237990	-0.922328	0.910281	0.146444	-0.700611	0.840259	1.830648	-5.116494	6.231026	0.000000	0.000000	20.493849	0.010329	-8.068162	19.775640	-4.339843	79.825146	37.853421	85.832910	12.620653	5.143125	17.061197	-12.313702	67.291023	46.649146	76.804025	12.668896	16.125704
0.100000	-3.895121	-0.801525	81.360359	0.229585	0.876713	0.476672	-2.379263	-2.752645	20.454266	7.258439	0.126684	35.677425	-11.655077	0.000000	-3.805073	3.633921	14.311086	1.652203	0.028836	37.262758	-17.769282	0.000000	0.254389	-0.440253	1.138076	0.472427	-0.585536	1.209206	0.417936	-1.070431	1.209206	0.290742	-1.070431	0.995817	0.236226	-0.897764	0.924687	0.145358	-0.681952	0.853557	1.817079	-4.980229	6.329639	0.000000	0.000000	20.334235	-0.101119	-8.556900	19.059565	-4.476026	77.912120	37.801094	84.281213	13.623160	6.692063	17.100643	-12.107227	67.076236	46.376513	76.842731	13.864795	16.523365
0.116667	-3.766532	-0.732321	81.534637	0.229453	0.876928	0.475947	-2.521002	-2.609941	20.315782	7.281390	0.127084	35.784428	-11.629023	0.000000	-3.966782	3.492528	14.571108	1.607588	0.028058	37.381419	-17.774331	0.000000	0.253134	-0.431122	1.170945	0.470095	-0.573393	1.244130	0.415874	-1.048231	1.244130	0.289307	-1.048231	1.024577	0.235060	-0.879145	0.951393	0.144641	-0.667808	0.878209	1.808109	-4.876942	6.512447	0.000000	0.000000	20.168343	-0.254444	-9.167002	18.429095	-4.611580	76.329381	37.748567	82.329770	14.286806	8.106320	17.231670	-11.890449	67.062245	46.082418	76.833698	14.783901	16.769240
0.133333	-3.660590	-0.680503	81.675984	0.229319	0.877106	0.475442	-2.555159	-2.485041	20.032188	7.405564	0.129251	36.022407	-11.349792	0.000000	-4.076208	3.381417	14.782392	1.597770	0.027886	37.493745	-17.781454	0.000000	0.252615	-0.424498	1.215288	0.469131	-0.564582	1.291243	0.415021	-1.032125	1.291243	0.288713	-1.032125	1.063377	0.234578	-0.865636	0.987421	0.144344	-0.657547	0.911466	1.804402	-4.802007	6.759066	0.000000	0.000000	19.999748	-0.446255	-9.878833	17.874822	-4.746314	75.055859	37.704434	79.959744	14.623192	9.393132	17.434663	-11.670070	67.223349	45.778528	76.800986	15.446691	16.877707
